<svg width="156" height="32" viewBox="0 0 156 32" fill="none" xmlns="http://www.w3.org/2000/svg">
<path fill-rule="evenodd" clip-rule="evenodd" d="M124.959 21.7163C125.188 21.0628 125.274 20.2388 125.274 18.8748C125.274 17.5106 125.188 16.715 124.959 16.0331C124.501 14.6691 123.442 13.9869 121.926 13.9869C120.409 13.9869 119.378 14.6973 118.921 16.0331C118.691 16.772 118.605 17.653 118.605 18.8748C118.605 20.1252 118.691 21.0059 118.921 21.7163C119.378 23.0521 120.409 23.7907 121.926 23.7907C123.442 23.7907 124.501 23.0803 124.959 21.7163ZM125.56 25.6948C125.389 25.6948 125.274 25.5812 125.274 25.4106V24.1036H125.246C124.587 25.1831 123.414 26.0072 121.353 26.0072C118.978 26.0072 117.318 24.8989 116.631 22.7391C116.259 21.6596 116.145 20.5799 116.145 18.8748C116.145 17.1983 116.259 16.1182 116.631 15.0385C117.318 12.8787 118.978 11.7704 121.353 11.7704C123.414 11.7704 124.587 12.5663 125.246 13.6458H125.274V6.65554C125.274 6.48498 125.389 6.37109 125.56 6.37109H127.392C127.564 6.37109 127.678 6.48498 127.678 6.65554V25.4106C127.678 25.5812 127.564 25.6948 127.392 25.6948H125.56ZM139.47 21.2902V19.784C139.47 19.6703 139.413 19.6134 139.299 19.6134H136.551C134.176 19.6134 133.145 20.2956 133.145 21.8299C133.145 23.2225 134.176 23.9614 136.007 23.9614C138.154 23.9614 139.47 22.9668 139.47 21.2902ZM139.814 25.6947C139.642 25.6947 139.528 25.5811 139.528 25.4105V24.2172H139.499C138.869 25.24 137.524 26.0074 135.435 26.0074C132.831 26.0074 130.827 24.6719 130.827 21.9153C130.827 19.0453 132.831 17.7096 136.179 17.7096H139.299C139.413 17.7096 139.47 17.6529 139.47 17.539V16.5444C139.47 14.6691 138.726 13.8732 136.179 13.8732C134.634 13.8732 133.661 14.271 132.859 14.8396C132.716 14.9532 132.544 14.9532 132.458 14.8109L131.685 13.5039C131.6 13.3333 131.628 13.2197 131.743 13.1061C132.773 12.3105 134.376 11.7706 136.408 11.7706C140.3 11.7706 141.788 13.0491 141.788 16.4026V25.4105C141.788 25.5811 141.674 25.6947 141.502 25.6947H139.814ZM145.51 30.8097C145.338 30.8097 145.224 30.6961 145.224 30.5256V28.8774C145.224 28.7069 145.338 28.5933 145.51 28.5933H146.025C147.142 28.5933 147.742 28.1103 148.343 26.5471L148.801 25.297L143.764 12.367C143.707 12.1968 143.793 12.0829 143.993 12.0829H145.996C146.168 12.0829 146.283 12.1683 146.34 12.367L149.946 22.1996H150.003L153.467 12.367C153.524 12.1683 153.638 12.0829 153.81 12.0829H155.756C155.928 12.0829 156.042 12.1968 155.985 12.367L150.576 26.7464C149.374 29.9572 148.315 30.8097 146.254 30.8097H145.51Z" fill="#3E4581"/>
<path fill-rule="evenodd" clip-rule="evenodd" d="M76.0182 12.1408C76.0182 10.038 74.6159 8.7307 72.2118 8.7307H67.8616C67.7471 8.7307 67.6898 8.78765 67.6898 8.90126V15.3804C67.6898 15.494 67.7471 15.5507 67.8616 15.5507H72.2118C74.6159 15.5507 76.0182 14.2437 76.0182 12.1408ZM65.4288 25.6956C65.2573 25.6956 65.1426 25.582 65.1426 25.4114V6.65633C65.1426 6.48604 65.2573 6.37215 65.4288 6.37215H72.3549C76.104 6.37215 78.5367 8.64556 78.5367 12.1408C78.5367 15.6361 76.104 17.9092 72.3549 17.9092H67.8616C67.7471 17.9092 67.6898 17.9661 67.6898 18.0798V25.4114C67.6898 25.582 67.5753 25.6956 67.4036 25.6956H65.4288ZM84.4622 25.8378C82.0578 25.8378 81.1134 24.7011 81.1134 22.2572V6.65652C81.1134 6.48596 81.2279 6.37207 81.3996 6.37207H83.2313C83.4031 6.37207 83.5175 6.48596 83.5175 6.65652V22.1151C83.5175 23.2518 83.9468 23.6211 84.8912 23.6211H85.4352C85.6067 23.6211 85.7212 23.7347 85.7212 23.9053V25.5534C85.7212 25.724 85.6067 25.8378 85.4352 25.8378H84.4622ZM96.1969 21.2911V19.7848C96.1969 19.6712 96.1395 19.6143 96.0251 19.6143H93.2777C90.902 19.6143 89.8716 20.2965 89.8716 21.8308C89.8716 23.2234 90.902 23.9623 92.7337 23.9623C94.8803 23.9623 96.1969 22.9677 96.1969 21.2911ZM96.5402 25.6956C96.3684 25.6956 96.254 25.582 96.254 25.4114V24.218H96.2253C95.5958 25.2409 94.2505 26.0082 92.1613 26.0082C89.557 26.0082 87.5536 24.6728 87.5536 21.9162C87.5536 19.0462 89.557 17.7105 92.9055 17.7105H96.0251C96.1395 17.7105 96.1969 17.6538 96.1969 17.5399V16.5453C96.1969 14.67 95.4524 13.8741 92.9055 13.8741C91.36 13.8741 90.387 14.2719 89.5854 14.8405C89.4426 14.9541 89.2708 14.9541 89.1848 14.8118L88.4119 13.5048C88.3264 13.3342 88.3548 13.2206 88.4693 13.107C89.4997 12.3114 91.1025 11.7715 93.1344 11.7715C97.0268 11.7715 98.515 13.05 98.515 16.4035V25.4114C98.515 25.582 98.4005 25.6956 98.2288 25.6956H96.5402ZM111.137 25.6957C110.965 25.6957 110.851 25.582 110.851 25.4115V17.4546C110.851 15.2666 109.849 13.9878 107.788 13.9878C105.928 13.9878 104.64 15.2953 104.64 17.3127V25.4115C104.64 25.582 104.526 25.6957 104.354 25.6957H102.522C102.351 25.6957 102.236 25.582 102.236 25.4115V12.3681C102.236 12.1978 102.351 12.084 102.522 12.084H104.354C104.526 12.084 104.64 12.1978 104.64 12.3681V13.6184H104.669C105.327 12.5672 106.644 11.7713 108.504 11.7713C111.481 11.7713 113.255 13.789 113.255 16.8865V25.4115C113.255 25.582 113.141 25.6957 112.969 25.6957H111.137Z" fill="#3E4581"/>
<path fill-rule="evenodd" clip-rule="evenodd" d="M41.258 13.1421C40.6539 10.418 39.1666 7.84199 36.7746 5.84923C30.9297 0.979466 22.6403 1.94263 17.9654 7.47457L17.9651 7.47484L17.9648 7.47511L0.98463 27.5678C-0.117052 28.8715 -0.0312991 30.3217 1.19109 31.3402C2.41349 32.3587 3.86692 32.1905 4.9686 30.8871L15.1358 18.856L21.9024 10.8494L21.9038 10.8505C21.9191 10.8318 21.9335 10.8125 21.9491 10.7941C22.0417 10.6846 22.1362 10.5788 22.232 10.4755C22.2476 10.459 22.264 10.443 22.2795 10.4261C25.3825 7.14619 30.2639 7.08681 33.4709 9.75855C33.4709 9.75855 33.49 9.77048 33.526 9.79028C37.2929 12.9734 37.0927 18.071 34.4448 21.2042C34.3524 21.3135 34.1301 21.5554 34.1143 21.5719C31.0116 24.8519 26.204 24.9224 22.8681 22.2078C22.1717 21.6194 21.611 20.9656 21.1765 20.2706C20.6554 19.4373 19.4674 19.3533 18.8336 20.1055L16.6559 22.6888C17.4085 23.9562 18.395 25.129 19.6193 26.1491C25.4642 31.0186 33.7535 30.0554 38.4285 24.5238C38.4285 24.5238 42.165 20.2215 41.258 13.1421Z" fill="#3E4581"/>
<path fill-rule="evenodd" clip-rule="evenodd" d="M41.2671 13.1438L51.4346 1.11299C52.5363 -0.190752 53.9895 -0.3586 55.2119 0.659606C56.4342 1.67808 56.5203 3.12852 55.4186 4.43199L38.4291 24.5233C33.7542 30.0553 25.4645 31.0182 19.6197 26.1487C18.3956 25.1288 17.4092 23.9558 16.6562 22.6887L18.8339 20.105C19.4681 19.3531 20.6561 19.4372 21.1771 20.2705C21.6116 20.9652 22.1808 21.6211 22.8772 22.2095C26.1874 24.9135 31.0068 24.8541 34.1098 21.5742C34.1138 21.5699 34.3722 21.2865 34.4402 21.2062L41.2671 13.1438Z" fill="#3E4581"/>
</svg>
