
<svg width="11" height="15" viewBox="0 0 11 15" fill="none" xmlns="http://www.w3.org/2000/svg">
<rect width="11" height="15" fill="#E5E5E5"/>
<g id="Design" clip-path="url(#clip0_0_1)">
<rect width="1440" height="6408" transform="translate(-1102 -2161)" fill="#FCFCFF"/>
<g id="Group 1000001645">
<path id="Rectangle 3742" d="M-322 525.5L1118 -37V837L-322 1043V525.5Z" fill="#F7F7FF"/>
</g>
<g id="How it works">
<g id="Card02">
<rect id="BG" x="-321.852" y="-144" width="475" height="580" rx="25" fill="#ECEEFF"/>
<g id="Shape">
<mask id="mask0_0_1" style="mask-type:alpha" maskUnits="userSpaceOnUse" x="-322" y="-144" width="476" height="580">
<rect id="Rectangle 392" x="-321.852" y="-144" width="475" height="580" rx="25" fill="#19BF6F"/>
</mask>
<g mask="url(#mask0_0_1)">
<path id="Union" fill-rule="evenodd" clip-rule="evenodd" d="M326.981 -246.147C326.891 -246.651 327.073 -247.166 327.459 -247.502C328.215 -248.158 328.098 -249.364 327.225 -249.854C327.125 -249.91 327.025 -249.967 326.924 -250.022C326.478 -250.272 326.166 -250.708 326.076 -251.211L324.486 -260.109C323.847 -263.683 320.431 -266.063 316.857 -265.424L312.739 -264.688C304.301 -263.181 295.669 -264.084 287.329 -266.063C278.745 -268.1 270.116 -269.151 261.342 -269.126C232.512 -269.042 204.604 -257.341 174.088 -236.04C142.591 -214.055 114.403 -178.653 90.296 -144.957C81.2855 -132.362 72.9221 -120.138 65.1053 -108.712C51.2757 -88.4977 39.1566 -70.7838 28.1909 -57.944C13.0696 -40.2385 -3.12879 -35.811 -15.59 -39.0038C-28.2187 -42.2396 -42.3104 -54.6539 -49.9584 -81.8309L-50.1293 -82.4383C-58.6005 -112.543 -72.5599 -162.152 -98.087 -202.283C-119.615 -236.127 -150.885 -265.312 -195.236 -268.927C-196.609 -269.038 -197.97 -268.575 -199.01 -267.672L-223.862 -246.091C-225.862 -244.354 -222.408 -238.624 -219.791 -239.032C-175.785 -245.895 -145.389 -222.524 -122.597 -186.693C-99.5532 -150.464 -86.5457 -104.61 -77.921 -73.9619C-68.4901 -40.4493 -48.6575 -17.4893 -22.7999 -10.8641C-20.9325 -10.3856 -19.0609 -9.99923 -17.1877 -9.70299C-14.7612 -9.31925 -10.8061 2.1381 -12.5495 3.86883C-35.8537 27.0035 -40.8964 62.2145 -28.7276 98.2422C-21.55 119.492 -9.13599 146.416 4.05066 175.015L4.05189 175.018L4.05569 175.026C10.9641 190.009 18.0845 205.451 24.7752 220.78C44.9488 266.997 62.1218 313.879 64.9899 354.107C67.962 395.792 62.7396 424.155 49.9197 445.77C42.9558 457.512 33.2952 468.031 20.1482 477.863C14.2244 482.292 10.9473 489.556 12.2486 496.838C14.4642 509.235 28.2968 515.768 38.5213 508.416C56.0637 495.8 70.1184 481.316 80.4581 463.883C98.4344 433.573 103.641 396.954 100.406 351.582C97.0667 304.752 77.5747 252.988 57.3159 206.576C49.7439 189.228 42.1548 172.792 35.0616 157.43C22.5123 130.251 11.5153 106.433 4.91099 86.8803C-4.19611 59.9175 1.30652 40.1437 12.4649 29.0666C23.7733 17.8404 45.631 10.8298 78.9442 19.8314L79.6888 20.0326C116.591 30.0047 177.4 46.4372 235.511 44.7918C284.517 43.4042 334.738 28.873 366.32 -15.408C367.297 -16.7782 367.664 -18.4974 367.368 -20.1541L360.291 -59.7577C359.721 -62.945 351.543 -62.9097 350.332 -59.9072C329.962 -9.42466 286.39 7.83134 234.506 9.30044C182.047 10.7858 125.774 -4.29362 88.2061 -14.4449C63.1521 -21.2147 39.7933 -21.4646 20.1284 -15.4148C31.0515 -20.5399 41.3193 -28.5866 50.2801 -39.0788C62.1977 -53.033 75.9044 -73.0451 90.4641 -94.3026L90.4655 -94.3046C98.0946 -105.443 105.958 -116.924 113.921 -128.054C137.927 -161.609 163.659 -193.335 190.715 -212.221C218.751 -231.791 240.866 -240.018 261.426 -240.077C275.062 -240.117 289.104 -236.568 304.838 -228.831C305.269 -228.619 305.788 -228.683 306.151 -228.998C306.721 -229.493 307.601 -229.34 307.968 -228.681C315.858 -214.529 323.867 -198.801 331.014 -182.436C336.294 -170.347 341.026 -158.084 344.878 -146.001L326.981 -246.147ZM-297.763 -174.075C-291.485 -182.854 -284.855 -191.321 -277.982 -199.094L-313.534 -168.222C-316.8 -165.386 -321.337 -168.489 -319.413 -172.363C-318.662 -173.874 -318.799 -175.814 -319.886 -177.104L-325.966 -184.314C-334.083 -193.943 -349.329 -192.684 -354.507 -181.204C-363.392 -161.508 -368.321 -141.937 -368.559 -121.669C-368.972 -86.4326 -355.171 -52.116 -329.683 -14.4402C-303.377 24.4462 -260.615 59.5288 -219.864 89.5937C-204.632 100.831 -189.842 111.271 -176.018 121.028C-151.56 138.291 -130.128 153.419 -114.632 167.051C-93.2636 185.848 -88.1422 205.723 -92.267 220.896C-96.4473 236.272 -111.871 253.272 -145.222 262.133L-145.968 262.331C-182.912 272.146 -243.79 288.32 -293.293 318.8C-335.04 344.505 -371.267 382.2 -376.477 436.339C-376.639 438.015 -376.097 439.687 -375.012 440.974L-349.081 471.733C-346.994 474.208 -339.929 470.089 -340.381 466.883C-347.982 412.979 -318.876 376.249 -274.677 349.034C-229.989 321.518 -173.716 306.441 -136.105 296.448C-94.9792 285.522 -66.5643 261.694 -58.005 230.21C-49.3903 198.523 -62.6287 165.508 -91.1811 140.392C-108.022 125.577 -132.235 108.468 -157.954 90.2937L-157.957 90.292L-157.962 90.288C-171.437 80.7663 -185.326 70.9522 -198.785 61.0225C-239.364 31.084 -277.678 -0.930973 -300.275 -34.3348C-318.027 -60.5756 -327.872 -82.5407 -331.468 -102.58C-332.996 -111.092 -330.951 -119.76 -326.822 -127.358C-318.961 -141.827 -309.079 -158.251 -297.763 -174.075ZM-292.612 538.715C-283.234 547.253 -273.005 555.507 -262.387 563.337C-245.411 575.857 -227.837 587.006 -211.839 596.251C-200.162 602.999 -198.321 619.435 -208.633 628.128C-211.409 630.469 -215.557 630.116 -217.898 627.339L-292.612 538.715Z" fill="white"/>
</g>
</g>
<g id="Card">
<rect id="BG_2" x="-241" y="-30" width="280" height="75" rx="10" fill="white"/>
<g id="Shape_2">
<path fill-rule="evenodd" clip-rule="evenodd" d="M5.5 0C2.46744 0 0 2.58282 0 5.75719C0 9.98801 5.50103 15 5.50103 15C5.50103 15 11 10.0049 11 5.75719C11 2.58282 8.53256 0 5.5 0ZM5.5 3.23842C4.17106 3.23842 3.09375 4.36611 3.09375 5.75719C3.09375 7.14827 4.17106 8.27596 5.5 8.27596C6.82894 8.27596 7.90625 7.14827 7.90625 5.75719C7.90625 4.36611 6.82894 3.23842 5.5 3.23842Z" fill="url(#paint0_linear_0_1)"/>
<path fill-rule="evenodd" clip-rule="evenodd" d="M0 5.75719C0 2.58282 2.46744 0 5.5 0C8.53256 0 11 2.58282 11 5.75719C11 10.0049 5.50103 15 5.50103 15C5.50103 15 0 9.98801 0 5.75719ZM3.09375 5.75719C3.09375 4.36611 4.17106 3.23842 5.5 3.23842C6.82894 3.23842 7.90625 4.36611 7.90625 5.75719C7.90625 7.14827 6.82894 8.27596 5.5 8.27596C4.17106 8.27596 3.09375 7.14827 3.09375 5.75719Z" fill="url(#paint1_linear_0_1)"/>
</g>
</g>
</g>
</g>
</g>
<defs>
<linearGradient id="paint0_linear_0_1" x1="0" y1="0" x2="13.5834" y2="2.9002" gradientUnits="userSpaceOnUse">
<stop stop-color="#AE68FA"/>
<stop offset="1" stop-color="#F1966E"/>
</linearGradient>
<linearGradient id="paint1_linear_0_1" x1="0" y1="0" x2="13.5834" y2="2.9002" gradientUnits="userSpaceOnUse">
<stop stop-color="#AE68FA"/>
<stop offset="1" stop-color="#F1966E"/>
</linearGradient>
<clipPath id="clip0_0_1">
<rect width="1440" height="6408" fill="white" transform="translate(-1102 -2161)"/>
</clipPath>
</defs>
</svg>
